<?xml version="1.0" encoding="utf-8"?>
<!-- Generator: Adobe Illustrator 25.0.0, SVG Export Plug-In . SVG Version: 6.00 Build 0)  -->
<svg version="1.0" xmlns="http://www.w3.org/2000/svg" xmlns:xlink="http://www.w3.org/1999/xlink" x="0px" y="0px"
	 viewBox="0 0 133.2283478 76.5354309" style="enable-background:new 0 0 133.2283478 76.5354309;" xml:space="preserve">
<style type="text/css">
	.st0{fill:#D70F3C;}
	.st1{fill:#002D58;}
	.st2{display:none;}
	.st3{display:inline;opacity:0;fill:#CCD5DE;}
</style>
<g id="Klammer">
	<g>
		<g>
			<polygon class="st0" points="7.2763009,17.3150959 4.2763009,17.3150959 4.2763009,4.2535729 17.3378239,4.2535729 
				17.3378239,7.2535729 7.2763009,7.2535729 			"/>
		</g>
	</g>
</g>
<g id="EN">
	<g>
		<path class="st1" d="M11.5596895,38.7727547v-7.6265984h1.1188164v7.6265984c0,2.9903793,1.2728996,4.3741798,3.6076918,4.3741798
			c2.3338127,0,3.6076927-1.3838005,3.6076927-4.3741798v-7.6265984h1.1188164v7.6265984
			c0,3.7941628-1.8332882,5.3830757-4.7265091,5.3830757C13.3919973,44.1558304,11.5596895,42.5669174,11.5596895,38.7727547z"/>
		<path class="st1" d="M34.3462486,31.1461563v12.8977928h-1.0805397l-6.6363487-10.7298393v10.7298393h-1.1188164V31.1461563
			h1.0609131l6.6559753,10.8230782V31.1461563H34.3462486z"/>
		<path class="st1" d="M40.155262,44.0439491h-1.1188164V31.1461563h1.1188164V44.0439491z"/>
		<path class="st1" d="M45.2880783,31.1461563l4.1091957,11.1410561l4.1474724-11.1410561h1.2149963l-4.8226891,12.8977928
			H48.895771L44.073082,31.1461563H45.2880783z"/>
		<path class="st1" d="M65.9322052,31.1461563v1.0088959h-6.7138824V36.86586h6.1348419v1.0098801h-6.1348419v5.1583328h6.7138824
			v1.0098763h-7.8326988V31.1461563H65.9322052z"/>
		<path class="st1" d="M77.5865402,44.0439491l-2.9521027-5.5145874c-0.2895203,0.0372963-0.5780563,0.0372963-0.887207,0.0372963
			h-3.028656v5.4772911H69.599762V31.1461563h4.1474686c3.0100098,0,4.7461395,1.2709351,4.7461395,3.719574
			c0,1.8323059-0.9843597,3.0100098-2.7401199,3.4771652l3.0865631,5.7010536H77.5865402z M73.7472305,37.5577583
			c2.3347931,0,3.627327-0.7664871,3.627327-2.692028s-1.2925339-2.7106781-3.627327-2.7106781h-3.028656v5.4027061H73.7472305z"/>
		<path class="st1" d="M89.8002853,33.7626152c-0.6948471-0.9902496-1.6203232-1.7194443-3.4536057-1.7194443
			c-1.8323135,0-3.0473099,0.7291946-3.0473099,2.3181114c0,1.8499718,1.524147,2.3181076,3.4526291,2.7293205
			c2.5085068,0.523098,4.1671066,1.2709389,4.1671066,3.7009277c0,1.6448555-1.1963501,3.3642998-4.3790894,3.3642998
			c-2.1218262,0-3.665596-0.7105446-4.6489792-2.112011l0.9068298-0.6173096
			c0.8292999,1.0098763,1.754776,1.7204247,3.7421494,1.7204247c2.3730698,0,3.2602692-1.0658188,3.2602692-2.3181076
			c0-1.5516243-0.9264603-2.2994652-3.4339828-2.7666168c-2.4888763-0.4671555-4.1857452-1.4024467-4.1857452-3.7009277
			c0-1.8136597,1.2149963-3.3279896,4.2053757-3.3279896c2.0639191,0,3.3760757,0.6919003,4.3015518,2.1129932
			L89.8002853,33.7626152z"/>
		<path class="st1" d="M95.9763489,44.0439491h-1.1188202V31.1461563h1.1188202V44.0439491z"/>
		<path class="st1" d="M109.0753326,31.1461563v1.0088959h-4.2250061v11.8888969h-1.1188126V32.1550522h-4.2240219v-1.0088959
			H109.0753326z"/>
		<path class="st1" d="M113.0520401,31.1461563l3.5694122,6.0563316l3.5684357-6.0563316h1.3121567l-4.3211823,7.2526779v5.6451149
			h-1.1188126v-5.6451149l-4.3211899-7.2526779H113.0520401z"/>
	</g>
	<g>
		<path class="st1" d="M21.0850525,11.5090361v2.6435547h-6.4423828v3.4433603h5.7763672v2.6220703h-5.7763672v3.9980469h6.4423828
			v2.6220703h-9.5527344V11.5090361H21.0850525z"/>
		<path class="st1" d="M31.6631775,15.4855986c-0.6660156-1.0449219-1.4658203-1.5556641-3.0214844-1.5556641
			c-1.3994141,0-2.1542969,0.6445312-2.1542969,1.6884766c0,1.2001963,0.9765625,1.7333994,3.0214844,2.2441416
			c3.1992188,0.7998047,4.6425781,2,4.6425781,4.7099609c0,2.5107422-1.6884766,4.4658203-5.2871094,4.4658203
			c-2.6884766,0-4.5546875-0.7333984-5.9101562-2.5107422l2.3769531-1.6435547
			c0.8222656,1.0214844,1.7558594,1.5322266,3.3330078,1.5322266c1.7773438,0,2.3769531-0.7773438,2.3769531-1.7099609
			c0-1.0664062-0.6435547-1.6669922-3.1318359-2.3105469c-3.0214844-0.8007812-4.5332031-2.2441406-4.5332031-4.7773447
			c0-2.421875,1.5996094-4.3095703,5.2441406-4.3095703c2.4433594,0,4.2871094,0.8212891,5.3759766,2.5107422L31.6631775,15.4855986
			z"/>
		<path class="st1" d="M44.8858337,15.4855986c-0.6660156-1.0449219-1.4658203-1.5556641-3.0214844-1.5556641
			c-1.3994141,0-2.1542969,0.6445312-2.1542969,1.6884766c0,1.2001963,0.9765625,1.7333994,3.0214844,2.2441416
			c3.1992188,0.7998047,4.6425781,2,4.6425781,4.7099609c0,2.5107422-1.6884766,4.4658203-5.2871094,4.4658203
			c-2.6884766,0-4.5546875-0.7333984-5.9101562-2.5107422l2.3769531-1.6435547
			c0.8222656,1.0214844,1.7558594,1.5322266,3.3330078,1.5322266c1.7773438,0,2.3769531-0.7773438,2.3769531-1.7099609
			c0-1.0664062-0.6435547-1.6669922-3.1318359-2.3105469c-3.0214844-0.8007812-4.5332031-2.2441406-4.5332031-4.7773447
			c0-2.421875,1.5996094-4.3095703,5.2441406-4.3095703c2.4433594,0,4.2871094,0.8212891,5.3759766,2.5107422L44.8858337,15.4855986
			z"/>
		<path class="st1" d="M53.2432556,24.2160683h6.4433594v2.6220703h-9.5537109V11.5090361h3.1103516V24.2160683z"/>
		<path class="st1" d="M65.1104431,26.8381386H61.999115V11.5090361h3.1113281V26.8381386z"/>
		<path class="st1" d="M80.3301697,11.5090361v15.3291025h-2.5986328l-5.9765625-9.4863281v9.4863281h-2.9550781V11.5090361
			h2.5771484l5.9990234,9.6191416v-9.6191416H80.3301697z"/>
		<path class="st1" d="M94.8643494,18.8625526v1.3994141c0,4.6875-2.1777344,6.7763672-5.6435547,6.7763672
			c-3.4433594,0-5.8652344-2.0888672-5.8652344-6.7763672v-1.9550781c0-4.9541025,2.421875-6.9980478,5.8652344-6.9980478
			c3.2216797,0,5.1542969,1.8212891,5.6210938,4.9541025h-2.9775391c-0.265625-1.399415-1.0878906-2.3330088-2.6435547-2.3330088
			c-1.7998047,0-2.7548828,1.2216797-2.7548828,4.1552744v2.1767578c0,2.9326172,0.9550781,4.1542969,2.7548828,4.1542969
			c1.7548828,0,2.4658203-1.0888672,2.6435547-2.9326172h-2.5761719v-2.6210938H94.8643494z"/>
		<path class="st1" d="M107.42099,11.5090361v2.6435547h-6.4433594v3.4433603h5.7763672v2.6220703h-5.7763672v3.9980469h6.4433594
			v2.6220703h-9.5537109V11.5090361H107.42099z"/>
		<path class="st1" d="M121.5528259,11.5090361v15.3291025h-2.5986328l-5.9765625-9.4863281v9.4863281h-2.9550781V11.5090361
			h2.5771484l5.9990234,9.6191416v-9.6191416H121.5528259z"/>
	</g>
	<g>
		<path class="st0" d="M11.5544577,59.4996529h4.2109375c0.0576172,0,0.0869141,0.0292969,0.0869141,0.0869141v1.3925781
			c0,0.0576172-0.0292969,0.0869141-0.0869141,0.0869141h-0.7480469c-0.0585938,0-0.0869141-0.0292969-0.0869141-0.0869141
			v-0.5224609c0-0.0351562-0.0175781-0.0517578-0.0527344-0.0517578h-1.7744141
			c-0.0351562,0-0.0527344,0.0166016-0.0527344,0.0517578v1.5224609c0,0.0351562,0.0175781,0.0517578,0.0527344,0.0517578h1.2001953
			c0.0351562,0,0.0527344-0.0166016,0.0527344-0.0517578v-0.3134766c0-0.0576172,0.0283203-0.0869141,0.0869141-0.0869141h0.7216797
			c0.0576172,0,0.0869141,0.0292969,0.0869141,0.0869141v1.6357422c0,0.0585938-0.0292969,0.0869141-0.0869141,0.0869141h-0.7216797
			c-0.0585938,0-0.0869141-0.0283203-0.0869141-0.0869141v-0.3134766c0-0.0341797-0.0175781-0.0517578-0.0527344-0.0517578
			h-1.2001953c-0.0351562,0-0.0527344,0.0175781-0.0527344,0.0517578v1.5224648
			c0,0.0351562,0.0175781,0.0527344,0.0527344,0.0527344h0.5390625c0.0576172,0,0.0869141,0.0292969,0.0869141,0.0869141v0.6787109
			c0,0.0576172-0.0292969,0.0869141-0.0869141,0.0869141h-2.0878906c-0.0585938,0-0.0869141-0.0292969-0.0869141-0.0869141
			v-0.6787109c0-0.0576172,0.0283203-0.0869141,0.0869141-0.0869141h0.4179688c0.0341797,0,0.0517578-0.0175781,0.0517578-0.0527344
			v-4.1054726c0-0.0351562-0.0175781-0.0527344-0.0517578-0.0527344h-0.4179688
			c-0.0585938,0-0.0869141-0.0292969-0.0869141-0.0869141v-0.6787109
			C11.4675436,59.5289497,11.4958639,59.4996529,11.5544577,59.4996529z"/>
		<path class="st0" d="M18.1482086,61.126606c0.4238281,0,0.7880859,0.1015625,1.0917969,0.3046875
			c0.3046875,0.203125,0.5146484,0.4873047,0.6308594,0.8525391c0.0927734,0.2841797,0.1396484,0.6289062,0.1396484,1.0351562
			s-0.046875,0.7509804-0.1396484,1.0351601c-0.1162109,0.3652344-0.3261719,0.6494141-0.6308594,0.8525391
			c-0.3037109,0.203125-0.6679688,0.3046875-1.0917969,0.3046875c-0.4287109,0-0.7958984-0.1015625-1.1005859-0.3046875
			c-0.3037109-0.203125-0.5146484-0.4873047-0.6298828-0.8525391c-0.09375-0.2841797-0.1396484-0.6289101-0.1396484-1.0351601
			s0.0458984-0.7509766,0.1396484-1.0351562c0.1152344-0.3652344,0.3261719-0.6494141,0.6298828-0.8525391
			C17.3523102,61.2281685,17.7194977,61.126606,18.1482086,61.126606z M18.1482086,61.9967232
			c-0.4111328,0-0.6757812,0.1826172-0.7910156,0.5478516c-0.0585938,0.1855469-0.0869141,0.4433594-0.0869141,0.7744141
			c0,0.3359375,0.0283203,0.5947266,0.0869141,0.7744179c0.1269531,0.3652344,0.3916016,0.5478516,0.7910156,0.5478516
			c0.3945312,0,0.6552734-0.1826172,0.7832031-0.5478516c0.0576172-0.1796913,0.0869141-0.4384804,0.0869141-0.7744179
			c0-0.3310547-0.0292969-0.5888672-0.0869141-0.7744141C18.8152008,62.1793404,18.5544586,61.9967232,18.1482086,61.9967232z"/>
		<path class="st0" d="M23.2907867,61.1617622c0.1396484,0,0.2753906,0.0136719,0.4091797,0.0429688
			c0.0576172,0.0117188,0.0869141,0.0410156,0.0869141,0.0869141v0.7568359c0,0.0761719-0.0351562,0.1044922-0.1044922,0.0869141
			c-0.2490234-0.0458984-0.4208984-0.0693359-0.5136719-0.0693359c-0.6259766,0-0.9394531,0.359375-0.9394531,1.0791016v1.3652382
			c0,0.0351562,0.0175781,0.0527344,0.0527344,0.0527344h0.4082031c0.0585938,0,0.0869141,0.0292969,0.0869141,0.0869141v0.6787109
			c0,0.0576172-0.0283203,0.0869141-0.0869141,0.0869141h-1.8613281c-0.0585938,0-0.0869141-0.0292969-0.0869141-0.0869141
			v-0.6787109c0-0.0576172,0.0283203-0.0869141,0.0869141-0.0869141h0.3740234c0.0351562,0,0.0517578-0.0175781,0.0517578-0.0527344
			V62.126606c0-0.0341797-0.0166016-0.0517578-0.0517578-0.0517578h-0.3740234
			c-0.0585938,0-0.0869141-0.0292969-0.0869141-0.0869141v-0.6787109c0-0.0576172,0.0283203-0.0869141,0.0869141-0.0869141
			h1.3134766c0.0576172,0,0.0869141,0.0292969,0.0869141,0.0869141v0.4345703h0.0087891
			C22.4763336,61.3560982,22.8269196,61.1617622,23.2907867,61.1617622z"/>
		<path class="st0" d="M29.0837555,61.126606c0.7490234,0,1.2324219,0.3359375,1.453125,1.0087891
			c0.0986328,0.3017578,0.1484375,0.6962891,0.1484375,1.1835938s-0.0498047,0.8818398-0.1484375,1.1835976
			c-0.2207031,0.6728516-0.7041016,1.0087891-1.453125,1.0087891c-0.5097656,0-0.8808594-0.1650391-1.1132812-0.4960938h-0.0087891
			v1.0615234c0,0.0351562,0.0175781,0.0527344,0.0527344,0.0527344h0.3740234c0.0576172,0,0.0869141,0.0283203,0.0869141,0.0869141
			v0.6777344c0,0.0585938-0.0292969,0.0878906-0.0869141,0.0878906h-1.8271484
			c-0.0585938,0-0.0869141-0.0292969-0.0869141-0.0878906v-0.6777344c0-0.0585938,0.0283203-0.0869141,0.0869141-0.0869141
			h0.3740234c0.0351562,0,0.0517578-0.0175781,0.0517578-0.0527344V62.126606c0-0.0341797-0.0166016-0.0517578-0.0517578-0.0517578
			h-0.3740234c-0.0585938,0-0.0869141-0.0292969-0.0869141-0.0869141v-0.6787109
			c0-0.0576172,0.0283203-0.0869141,0.0869141-0.0869141h1.3134766c0.0576172,0,0.0869141,0.0292969,0.0869141,0.0869141v0.3134766
			h0.0087891C28.2028961,61.2916451,28.5739899,61.126606,29.0837555,61.126606z M28.8318024,61.9967232
			c-0.40625,0-0.6669922,0.1796875-0.7832031,0.5390625c-0.0576172,0.1796875-0.0869141,0.4414062-0.0869141,0.7832031
			s0.0292969,0.6035156,0.0869141,0.7832069c0.1162109,0.359375,0.3769531,0.5390625,0.7832031,0.5390625
			c0.4003906,0,0.6582031-0.1796875,0.7744141-0.5390625c0.0576172-0.1796913,0.0869141-0.4414101,0.0869141-0.7832069
			s-0.0292969-0.6035156-0.0869141-0.7832031C29.4900055,62.1764107,29.232193,61.9967232,28.8318024,61.9967232z"/>
		<path class="st0" d="M33.357193,61.126606c0.4287109,0,0.7939453,0.1025391,1.0957031,0.3085938
			s0.5107422,0.4892578,0.6269531,0.8486328c0.0917969,0.2841797,0.1386719,0.7041016,0.1386719,1.2617188
			c0,0.0576172-0.0322266,0.0869141-0.0957031,0.0869141h-2.5839844c-0.0351562,0-0.0517578,0.0175781-0.0517578,0.0517578
			c0,0.1044922,0.0195312,0.2119141,0.0605469,0.3222694c0.1445312,0.4228516,0.4580078,0.6347656,0.9394531,0.6347656
			c0.4121094,0,0.7392578-0.1328125,0.9833984-0.4003906c0.0458984-0.0458984,0.0898438-0.0517578,0.1308594-0.0175781
			l0.5126953,0.453125c0.0410156,0.0341797,0.0439453,0.0751953,0.0087891,0.1210938
			c-0.40625,0.4765625-0.9804688,0.7138672-1.7226562,0.7138672c-0.4404297,0-0.8134766-0.1025391-1.1181641-0.3085938
			c-0.3037109-0.2060547-0.5146484-0.4921875-0.6308594-0.8574219c-0.0986328-0.3076172-0.1474609-0.6494179-0.1474609-1.026371
			c0-0.4003906,0.0458984-0.7451172,0.1396484-1.0351562c0.1152344-0.3652344,0.3261719-0.6494141,0.6298828-0.8525391
			C32.5778961,61.2281685,32.9392242,61.126606,33.357193,61.126606z M33.3650055,61.9527779
			c-0.4287109,0-0.7041016,0.1796875-0.8261719,0.5400391c-0.0351562,0.1044922-0.0517578,0.2226562-0.0517578,0.3564453
			c0,0.0351562,0.0166016,0.0517578,0.0517578,0.0517578h1.6445312c0.0351562,0,0.0517578-0.0166016,0.0517578-0.0517578
			c0-0.1337891-0.0166016-0.2519531-0.0517578-0.3564453c-0.0585938-0.1689453-0.1601562-0.3007812-0.3046875-0.3964844
			S33.5622711,61.9527779,33.3650055,61.9527779z"/>
		<path class="st0" d="M37.8972321,61.126606c0.4238281,0,0.7880859,0.1015625,1.0917969,0.3046875
			c0.3046875,0.203125,0.5146484,0.4873047,0.6308594,0.8525391c0.0927734,0.2841797,0.1396484,0.6289062,0.1396484,1.0351562
			s-0.046875,0.7509804-0.1396484,1.0351601c-0.1162109,0.3652344-0.3261719,0.6494141-0.6308594,0.8525391
			c-0.3037109,0.203125-0.6679688,0.3046875-1.0917969,0.3046875c-0.4287109,0-0.7958984-0.1015625-1.1005859-0.3046875
			c-0.3037109-0.203125-0.5146484-0.4873047-0.6298828-0.8525391c-0.09375-0.2841797-0.1396484-0.6289101-0.1396484-1.0351601
			s0.0458984-0.7509766,0.1396484-1.0351562c0.1152344-0.3652344,0.3261719-0.6494141,0.6298828-0.8525391
			C37.1013336,61.2281685,37.4685211,61.126606,37.8972321,61.126606z M37.8972321,61.9967232
			c-0.4111328,0-0.6757812,0.1826172-0.7910156,0.5478516c-0.0585938,0.1855469-0.0869141,0.4433594-0.0869141,0.7744141
			c0,0.3359375,0.0283203,0.5947266,0.0869141,0.7744179c0.1269531,0.3652344,0.3916016,0.5478516,0.7910156,0.5478516
			c0.3945312,0,0.6552734-0.1826172,0.7832031-0.5478516c0.0576172-0.1796913,0.0869141-0.4384804,0.0869141-0.7744179
			c0-0.3310547-0.0292969-0.5888672-0.0869141-0.7744141C38.5642242,62.1793404,38.3034821,61.9967232,37.8972321,61.9967232z"/>
		<path class="st0" d="M43.0993805,61.126606c0.7490234,0,1.2324219,0.3359375,1.453125,1.0087891
			c0.0986328,0.3017578,0.1484375,0.6962891,0.1484375,1.1835938s-0.0498047,0.8818398-0.1484375,1.1835976
			c-0.2207031,0.6728516-0.7041016,1.0087891-1.453125,1.0087891c-0.5097656,0-0.8808594-0.1650391-1.1132812-0.4960938h-0.0087891
			v1.0615234c0,0.0351562,0.0175781,0.0527344,0.0527344,0.0527344h0.3740234c0.0576172,0,0.0869141,0.0283203,0.0869141,0.0869141
			v0.6777344c0,0.0585938-0.0292969,0.0878906-0.0869141,0.0878906h-1.8271484
			c-0.0585938,0-0.0869141-0.0292969-0.0869141-0.0878906v-0.6777344c0-0.0585938,0.0283203-0.0869141,0.0869141-0.0869141
			h0.3740234c0.0351562,0,0.0517578-0.0175781,0.0517578-0.0527344V62.126606c0-0.0341797-0.0166016-0.0517578-0.0517578-0.0517578
			h-0.3740234c-0.0585938,0-0.0869141-0.0292969-0.0869141-0.0869141v-0.6787109
			c0-0.0576172,0.0283203-0.0869141,0.0869141-0.0869141h1.3134766c0.0576172,0,0.0869141,0.0292969,0.0869141,0.0869141v0.3134766
			h0.0087891C42.2185211,61.2916451,42.5896149,61.126606,43.0993805,61.126606z M42.8474274,61.9967232
			c-0.40625,0-0.6669922,0.1796875-0.7832031,0.5390625c-0.0576172,0.1796875-0.0869141,0.4414062-0.0869141,0.7832031
			s0.0292969,0.6035156,0.0869141,0.7832069c0.1162109,0.359375,0.3769531,0.5390625,0.7832031,0.5390625
			c0.4003906,0,0.6582031-0.1796875,0.7744141-0.5390625c0.0576172-0.1796913,0.0869141-0.4414101,0.0869141-0.7832069
			s-0.0292969-0.6035156-0.0869141-0.7832031C43.5056305,62.1764107,43.247818,61.9967232,42.8474274,61.9967232z"/>
		<path class="st0" d="M45.4148102,59.4996529h1.3134766c0.0585938,0,0.0869141,0.0292969,0.0869141,0.0869141v4.5937538
			c0,0.1386719,0.0292969,0.2382812,0.0869141,0.2958984c0.0585938,0.0576172,0.1513672,0.0869141,0.2792969,0.0869141h0.1914062
			c0.0576172,0,0.0869141,0.0292969,0.0869141,0.0869141v0.7050781c0,0.0576172-0.0292969,0.0869141-0.0869141,0.0869141h-0.3828125
			c-0.4003906,0-0.6923828-0.1015625-0.875-0.3046875s-0.2734375-0.5107422-0.2734375-0.921875v-3.8105507
			c0-0.0351562-0.0175781-0.0527344-0.0527344-0.0527344h-0.3740234c-0.0576172,0-0.0869141-0.0292969-0.0869141-0.0869141
			v-0.6787109C45.3278961,59.5289497,45.357193,59.4996529,45.4148102,59.4996529z"/>
		<path class="st0" d="M49.9558258,61.126606c0.4287109,0,0.7939453,0.1025391,1.0957031,0.3085938
			s0.5107422,0.4892578,0.6269531,0.8486328c0.0917969,0.2841797,0.1386719,0.7041016,0.1386719,1.2617188
			c0,0.0576172-0.0322266,0.0869141-0.0957031,0.0869141h-2.5839844c-0.0351562,0-0.0517578,0.0175781-0.0517578,0.0517578
			c0,0.1044922,0.0195312,0.2119141,0.0605469,0.3222694c0.1445312,0.4228516,0.4580078,0.6347656,0.9394531,0.6347656
			c0.4121094,0,0.7392578-0.1328125,0.9833984-0.4003906c0.0458984-0.0458984,0.0898438-0.0517578,0.1308594-0.0175781
			l0.5126953,0.453125c0.0410156,0.0341797,0.0439453,0.0751953,0.0087891,0.1210938
			c-0.40625,0.4765625-0.9804688,0.7138672-1.7226562,0.7138672c-0.4404297,0-0.8134766-0.1025391-1.1181641-0.3085938
			c-0.3037109-0.2060547-0.5146484-0.4921875-0.6308594-0.8574219c-0.0986328-0.3076172-0.1474609-0.6494179-0.1474609-1.026371
			c0-0.4003906,0.0458984-0.7451172,0.1396484-1.0351562c0.1152344-0.3652344,0.3261719-0.6494141,0.6298828-0.8525391
			C49.1765289,61.2281685,49.5378571,61.126606,49.9558258,61.126606z M49.9636383,61.9527779
			c-0.4287109,0-0.7041016,0.1796875-0.8261719,0.5400391c-0.0351562,0.1044922-0.0517578,0.2226562-0.0517578,0.3564453
			c0,0.0351562,0.0166016,0.0517578,0.0517578,0.0517578h1.6445312c0.0351562,0,0.0517578-0.0166016,0.0517578-0.0517578
			c0-0.1337891-0.0166016-0.2519531-0.0517578-0.3564453c-0.0585938-0.1689453-0.1601562-0.3007812-0.3046875-0.3964844
			S50.1609039,61.9527779,49.9636383,61.9527779z"/>
		<path class="st0" d="M56.4284821,61.126606c0.6318359,0,1.0800781,0.1132812,1.3447266,0.3388672
			c0.2636719,0.2265625,0.3955078,0.6005859,0.3955078,1.1230469v1.9218788c0,0.0351562,0.0175781,0.0527344,0.0517578,0.0527344
			h0.3740234c0.0585938,0,0.0869141,0.0292969,0.0869141,0.0869141v0.6787109c0,0.0576172-0.0283203,0.0869141-0.0869141,0.0869141
			h-1.2441406c-0.0576172,0-0.0869141-0.0292969-0.0869141-0.0869141v-0.3046875h-0.0087891
			c-0.2255859,0.3251953-0.6142578,0.4873047-1.1650391,0.4873047c-0.40625,0-0.7412109-0.1103516-1.0048828-0.3310547
			c-0.2646484-0.2197266-0.3964844-0.5390625-0.3964844-0.9570312c0-0.4462929,0.1464844-0.7812538,0.4394531-1.0039101
			c0.2929688-0.2236328,0.703125-0.3349609,1.2314453-0.3349609h0.8349609c0.0351562,0,0.0527344-0.0175781,0.0527344-0.0527344
			v-0.1650391c0-0.2548828-0.0625-0.4404297-0.1875-0.5566406s-0.3496094-0.1748047-0.6738281-0.1748047
			c-0.1513672,0-0.3017578,0.0175781-0.453125,0.0527344c-0.0283203,0.0058594-0.0429688,0.0263672-0.0429688,0.0605469v0.3740234
			c0,0.0585938-0.0292969,0.0869141-0.0869141,0.0869141h-0.7568359c-0.0585938,0-0.0869141-0.0283203-0.0869141-0.0869141
			v-0.8867188c0-0.0527344,0.0224609-0.0898438,0.0693359-0.1132812
			C55.4392242,61.2252388,55.9069977,61.126606,56.4284821,61.126606z M57.1941071,63.6148872h-0.6787109
			c-0.5976562,0-0.8955078,0.1914062-0.8955078,0.5742226c0,0.3535156,0.2373047,0.5302734,0.7128906,0.5302734
			c0.609375,0,0.9140625-0.2373047,0.9140625-0.7128906v-0.3398476
			C57.2468414,63.6324654,57.2292633,63.6148872,57.1941071,63.6148872z"/>
		<path class="st0" d="M61.8659821,61.126606c0.4404297,0,0.7929688,0.1445312,1.0566406,0.4345703
			s0.3964844,0.6650391,0.3964844,1.1230469v1.8261757c0,0.0351562,0.0166016,0.0527344,0.0517578,0.0527344h0.3564453
			c0.0585938,0,0.0869141,0.0292969,0.0869141,0.0869141v0.6787109c0,0.0576172-0.0283203,0.0869141-0.0869141,0.0869141h-1.8095703
			c-0.0576172,0-0.0869141-0.0292969-0.0869141-0.0869141v-0.6787109c0-0.0576172,0.0292969-0.0869141,0.0869141-0.0869141
			h0.3740234c0.0351562,0,0.0527344-0.0175781,0.0527344-0.0527344v-1.6005898c0-0.2783203-0.0673828-0.5-0.2001953-0.6650391
			c-0.1337891-0.1660156-0.328125-0.2480469-0.5830078-0.2480469c-0.2490234,0-0.4423828,0.0820312-0.578125,0.2480469
			c-0.1367188,0.1650391-0.2050781,0.3867188-0.2050781,0.6650391v1.6005898c0,0.0351562,0.0175781,0.0527344,0.0527344,0.0527344
			h0.3740234c0.0576172,0,0.0869141,0.0292969,0.0869141,0.0869141v0.6787109c0,0.0576172-0.0292969,0.0869141-0.0869141,0.0869141
			h-1.8271484c-0.0585938,0-0.0869141-0.0292969-0.0869141-0.0869141v-0.6787109
			c0-0.0576172,0.0283203-0.0869141,0.0869141-0.0869141h0.3740234c0.0351562,0,0.0517578-0.0175781,0.0517578-0.0527344V62.126606
			c0-0.0341797-0.0166016-0.0517578-0.0517578-0.0517578h-0.3740234c-0.0585938,0-0.0869141-0.0292969-0.0869141-0.0869141
			v-0.6787109c0-0.0576172,0.0283203-0.0869141,0.0869141-0.0869141h1.3134766c0.0576172,0,0.0869141,0.0292969,0.0869141,0.0869141
			v0.3046875h0.0087891C61.013443,61.2887154,61.372818,61.126606,61.8659821,61.126606z"/>
		<path class="st0" d="M66.8073883,59.4996529h1.3134766c0.0576172,0,0.0869141,0.0292969,0.0869141,0.0869141v4.9238319
			c0,0.0351562,0.0175781,0.0527344,0.0527344,0.0527344h0.3740234c0.0576172,0,0.0869141,0.0292969,0.0869141,0.0869141v0.6787109
			c0,0.0576172-0.0292969,0.0869141-0.0869141,0.0869141h-1.3144531c-0.0576172,0-0.0869141-0.0292969-0.0869141-0.0869141
			v-0.3134766h-0.0087891c-0.2314453,0.3310547-0.6025391,0.4960938-1.1132812,0.4960938
			c-0.7480469,0-1.2324219-0.3359375-1.453125-1.0087891c-0.0986328-0.3017578-0.1474609-0.6962929-0.1474609-1.1835976
			s0.0488281-0.8818359,0.1474609-1.1835938c0.2207031-0.6728516,0.7050781-1.0087891,1.453125-1.0087891
			c0.5107422,0,0.8818359,0.1650391,1.1132812,0.4960938h0.0087891v-1.2177734c0-0.0351562-0.0166016-0.0527344-0.0517578-0.0527344
			h-0.3740234c-0.0585938,0-0.0869141-0.0292969-0.0869141-0.0869141v-0.6787109
			C66.7204742,59.5289497,66.7487946,59.4996529,66.8073883,59.4996529z M66.3630524,61.9967232
			c-0.3994141,0-0.6582031,0.1796875-0.7734375,0.5390625c-0.0585938,0.1796875-0.0878906,0.4414062-0.0878906,0.7832031
			s0.0292969,0.6035156,0.0878906,0.7832069c0.1152344,0.359375,0.3740234,0.5390625,0.7734375,0.5390625
			c0.40625,0,0.6669922-0.1796875,0.7832031-0.5390625c0.0585938-0.1796913,0.0869141-0.4414101,0.0869141-0.7832069
			s-0.0283203-0.6035156-0.0869141-0.7832031C67.0300446,62.1764107,66.7693024,61.9967232,66.3630524,61.9967232z"/>
		<path class="st0" d="M71.9489899,59.9342232h0.7998047c0.0585938,0,0.0869141,0.0292969,0.0869141,0.0878906v1.1484375
			c0,0.0341797,0.0175781,0.0517578,0.0527344,0.0517578h0.5566406c0.0576172,0,0.0869141,0.0292969,0.0869141,0.0869141v0.6787109
			c0,0.0576172-0.0292969,0.0869141-0.0869141,0.0869141H72.888443c-0.0351562,0-0.0527344,0.0175781-0.0527344,0.0517578v2.0449257
			c0,0.1455078,0.03125,0.2470703,0.0917969,0.3046875s0.1611328,0.0869141,0.2998047,0.0869141h0.2177734
			c0.0576172,0,0.0869141,0.0292969,0.0869141,0.0869141v0.7050781c0,0.0576172-0.0292969,0.0869141-0.0869141,0.0869141h-0.4179688
			c-0.4111328,0-0.7089844-0.1005859-0.8916016-0.3007812s-0.2734375-0.5087891-0.2734375-0.9257812v-2.088871
			c0-0.0341797-0.0175781-0.0517578-0.0527344-0.0517578h-0.2783203c-0.0576172,0-0.0869141-0.0292969-0.0869141-0.0869141
			v-0.6787109c0-0.0576172,0.0292969-0.0869141,0.0869141-0.0869141h0.2783203c0.0351562,0,0.0527344-0.0175781,0.0527344-0.0517578
			v-1.1484375C71.8620758,59.9635201,71.8903961,59.9342232,71.9489899,59.9342232z"/>
		<path class="st0" d="M76.2380524,61.126606c0.4287109,0,0.7939453,0.1025391,1.0957031,0.3085938
			s0.5107422,0.4892578,0.6269531,0.8486328c0.0917969,0.2841797,0.1386719,0.7041016,0.1386719,1.2617188
			c0,0.0576172-0.0322266,0.0869141-0.0957031,0.0869141H75.419693c-0.0351562,0-0.0517578,0.0175781-0.0517578,0.0517578
			c0,0.1044922,0.0195312,0.2119141,0.0605469,0.3222694c0.1445312,0.4228516,0.4580078,0.6347656,0.9394531,0.6347656
			c0.4121094,0,0.7392578-0.1328125,0.9833984-0.4003906c0.0458984-0.0458984,0.0898438-0.0517578,0.1308594-0.0175781
			l0.5126953,0.453125c0.0410156,0.0341797,0.0439453,0.0751953,0.0087891,0.1210938
			c-0.40625,0.4765625-0.9804688,0.7138672-1.7226562,0.7138672c-0.4404297,0-0.8134766-0.1025391-1.1181641-0.3085938
			c-0.3037109-0.2060547-0.5146484-0.4921875-0.6308594-0.8574219c-0.0986328-0.3076172-0.1474609-0.6494179-0.1474609-1.026371
			c0-0.4003906,0.0458984-0.7451172,0.1396484-1.0351562c0.1152344-0.3652344,0.3261719-0.6494141,0.6298828-0.8525391
			C75.4587555,61.2281685,75.8200836,61.126606,76.2380524,61.126606z M76.2458649,61.9527779
			c-0.4287109,0-0.7041016,0.1796875-0.8261719,0.5400391c-0.0351562,0.1044922-0.0517578,0.2226562-0.0517578,0.3564453
			c0,0.0351562,0.0166016,0.0517578,0.0517578,0.0517578h1.6445312c0.0351562,0,0.0517578-0.0166016,0.0517578-0.0517578
			c0-0.1337891-0.0166016-0.2519531-0.0517578-0.3564453c-0.0585938-0.1689453-0.1601562-0.3007812-0.3046875-0.3964844
			S76.4431305,61.9527779,76.2458649,61.9527779z"/>
		<path class="st0" d="M80.8230133,61.126606c0.5800781,0,1.0615234,0.1103516,1.4443359,0.3300781
			c0.0458984,0.0234375,0.0693359,0.0615234,0.0693359,0.1132812v0.9570312c0,0.0585938-0.0292969,0.0869141-0.0869141,0.0869141
			h-0.7392578c-0.0585938,0-0.0869141-0.0283203-0.0869141-0.0869141v-0.3828125
			c0-0.0224609-0.0146484-0.0429688-0.0439453-0.0605469c-0.1162109-0.0576172-0.2929688-0.0869141-0.5302734-0.0869141
			c-0.453125,0-0.7402344,0.1826172-0.8613281,0.5478516c-0.0585938,0.1738281-0.0869141,0.4326172-0.0869141,0.7744141
			c0,0.3476562,0.0283203,0.609375,0.0869141,0.7832069c0.1210938,0.359375,0.4082031,0.5390625,0.8613281,0.5390625
			c0.2490234,0,0.4257812-0.0263672,0.5302734-0.078125c0.0292969-0.0117188,0.0439453-0.0322266,0.0439453-0.0605469v-0.3916016
			c0-0.0585938,0.0283203-0.0869141,0.0869141-0.0869141h0.7392578c0.0576172,0,0.0869141,0.0283203,0.0869141,0.0869141v0.9658203
			c0,0.0517578-0.0234375,0.0898438-0.0693359,0.1123047c-0.4121094,0.2148438-0.8935547,0.3222656-1.4443359,0.3222656
			c-0.9453125,0-1.5400391-0.3769531-1.7832031-1.1308594c-0.0869141-0.2607422-0.1308594-0.6152382-0.1308594-1.0615273
			c0-0.4287109,0.0439453-0.7744141,0.1308594-1.0351562c0.1210938-0.3710938,0.3378906-0.6572266,0.6474609-0.8574219
			C79.997818,61.2262154,80.3767242,61.126606,80.8230133,61.126606z"/>
		<path class="st0" d="M83.2243805,59.4996529h1.3134766c0.0576172,0,0.0869141,0.0292969,0.0869141,0.0869141v2.0273438h0.0087891
			c0.2265625-0.3251953,0.5888672-0.4873047,1.0878906-0.4873047c0.4345703,0,0.7841797,0.1445312,1.0478516,0.4345703
			s0.3964844,0.6650391,0.3964844,1.1230469v1.8261757c0,0.0351562,0.0166016,0.0527344,0.0517578,0.0527344h0.3564453
			c0.0585938,0,0.0869141,0.0292969,0.0869141,0.0869141v0.6787109c0,0.0576172-0.0283203,0.0869141-0.0869141,0.0869141h-1.8095703
			c-0.0576172,0-0.0869141-0.0292969-0.0869141-0.0869141v-0.6787109c0-0.0576172,0.0292969-0.0869141,0.0869141-0.0869141
			h0.3740234c0.0351562,0,0.0527344-0.0175781,0.0527344-0.0527344v-1.6005898c0-0.2783203-0.0673828-0.5-0.2001953-0.6650391
			c-0.1337891-0.1660156-0.328125-0.2480469-0.5830078-0.2480469c-0.2490234,0-0.4423828,0.0820312-0.578125,0.2480469
			c-0.1367188,0.1650391-0.2050781,0.3867188-0.2050781,0.6650391v1.6005898c0,0.0351562,0.0175781,0.0527344,0.0527344,0.0527344
			h0.3740234c0.0576172,0,0.0869141,0.0292969,0.0869141,0.0869141v0.6787109c0,0.0576172-0.0292969,0.0869141-0.0869141,0.0869141
			h-1.8271484c-0.0585938,0-0.0869141-0.0292969-0.0869141-0.0869141v-0.6787109
			c0-0.0576172,0.0283203-0.0869141,0.0869141-0.0869141h0.3740234c0.0351562,0,0.0517578-0.0175781,0.0517578-0.0527344v-4.1054726
			c0-0.0351562-0.0166016-0.0527344-0.0517578-0.0527344h-0.3740234c-0.0585938,0-0.0869141-0.0292969-0.0869141-0.0869141
			v-0.6787109C83.1374664,59.5289497,83.1657867,59.4996529,83.2243805,59.4996529z"/>
		<path class="st0" d="M90.8454742,61.126606c0.4404297,0,0.7929688,0.1445312,1.0566406,0.4345703
			s0.3964844,0.6650391,0.3964844,1.1230469v1.8261757c0,0.0351562,0.0166016,0.0527344,0.0517578,0.0527344h0.3564453
			c0.0585938,0,0.0869141,0.0292969,0.0869141,0.0869141v0.6787109c0,0.0576172-0.0283203,0.0869141-0.0869141,0.0869141h-1.8095703
			c-0.0576172,0-0.0869141-0.0292969-0.0869141-0.0869141v-0.6787109c0-0.0576172,0.0292969-0.0869141,0.0869141-0.0869141
			h0.3740234c0.0351562,0,0.0527344-0.0175781,0.0527344-0.0527344v-1.6005898c0-0.2783203-0.0673828-0.5-0.2001953-0.6650391
			c-0.1337891-0.1660156-0.328125-0.2480469-0.5830078-0.2480469c-0.2490234,0-0.4423828,0.0820312-0.578125,0.2480469
			c-0.1367188,0.1650391-0.2050781,0.3867188-0.2050781,0.6650391v1.6005898c0,0.0351562,0.0175781,0.0527344,0.0527344,0.0527344
			h0.3740234c0.0576172,0,0.0869141,0.0292969,0.0869141,0.0869141v0.6787109c0,0.0576172-0.0292969,0.0869141-0.0869141,0.0869141
			H88.357193c-0.0585938,0-0.0869141-0.0292969-0.0869141-0.0869141v-0.6787109
			c0-0.0576172,0.0283203-0.0869141,0.0869141-0.0869141h0.3740234c0.0351562,0,0.0517578-0.0175781,0.0517578-0.0527344V62.126606
			c0-0.0341797-0.0166016-0.0517578-0.0517578-0.0517578H88.357193c-0.0585938,0-0.0869141-0.0292969-0.0869141-0.0869141
			v-0.6787109c0-0.0576172,0.0283203-0.0869141,0.0869141-0.0869141h1.3134766c0.0576172,0,0.0869141,0.0292969,0.0869141,0.0869141
			v0.3046875h0.0087891C89.9929352,61.2887154,90.3523102,61.126606,90.8454742,61.126606z"/>
		<path class="st0" d="M95.3513336,61.126606c0.4238281,0,0.7880859,0.1015625,1.0917969,0.3046875
			c0.3046875,0.203125,0.5146484,0.4873047,0.6308594,0.8525391c0.0927734,0.2841797,0.1396484,0.6289062,0.1396484,1.0351562
			s-0.046875,0.7509804-0.1396484,1.0351601c-0.1162109,0.3652344-0.3261719,0.6494141-0.6308594,0.8525391
			c-0.3037109,0.203125-0.6679688,0.3046875-1.0917969,0.3046875c-0.4287109,0-0.7958984-0.1015625-1.1005859-0.3046875
			c-0.3037109-0.203125-0.5146484-0.4873047-0.6298828-0.8525391c-0.09375-0.2841797-0.1396484-0.6289101-0.1396484-1.0351601
			s0.0458984-0.7509766,0.1396484-1.0351562c0.1152344-0.3652344,0.3261719-0.6494141,0.6298828-0.8525391
			C94.5554352,61.2281685,94.9226227,61.126606,95.3513336,61.126606z M95.3513336,61.9967232
			c-0.4111328,0-0.6757812,0.1826172-0.7910156,0.5478516c-0.0585938,0.1855469-0.0869141,0.4433594-0.0869141,0.7744141
			c0,0.3359375,0.0283203,0.5947266,0.0869141,0.7744179c0.1269531,0.3652344,0.3916016,0.5478516,0.7910156,0.5478516
			c0.3945312,0,0.6552734-0.1826172,0.7832031-0.5478516c0.0576172-0.1796913,0.0869141-0.4384804,0.0869141-0.7744179
			c0-0.3310547-0.0292969-0.5888672-0.0869141-0.7744141C96.0183258,62.1793404,95.7575836,61.9967232,95.3513336,61.9967232z"/>
		<path class="st0" d="M97.9177399,59.4996529h1.3134766c0.0585938,0,0.0869141,0.0292969,0.0869141,0.0869141v4.5937538
			c0,0.1386719,0.0292969,0.2382812,0.0869141,0.2958984c0.0585938,0.0576172,0.1513672,0.0869141,0.2792969,0.0869141h0.1914062
			c0.0576172,0,0.0869141,0.0292969,0.0869141,0.0869141v0.7050781c0,0.0576172-0.0292969,0.0869141-0.0869141,0.0869141h-0.3828125
			c-0.4003906,0-0.6923828-0.1015625-0.875-0.3046875s-0.2734375-0.5107422-0.2734375-0.921875v-3.8105507
			c0-0.0351562-0.0175781-0.0527344-0.0527344-0.0527344h-0.3740234c-0.0576172,0-0.0869141-0.0292969-0.0869141-0.0869141
			v-0.6787109C97.8308258,59.5289497,97.8601227,59.4996529,97.9177399,59.4996529z"/>
		<path class="st0" d="M102.4763336,61.126606c0.4238281,0,0.7880859,0.1015625,1.0917969,0.3046875
			c0.3046875,0.203125,0.5146484,0.4873047,0.6308594,0.8525391c0.0927734,0.2841797,0.1396484,0.6289062,0.1396484,1.0351562
			s-0.046875,0.7509804-0.1396484,1.0351601c-0.1162109,0.3652344-0.3261719,0.6494141-0.6308594,0.8525391
			c-0.3037109,0.203125-0.6679688,0.3046875-1.0917969,0.3046875c-0.4287109,0-0.7958984-0.1015625-1.1005859-0.3046875
			c-0.3037109-0.203125-0.5146484-0.4873047-0.6298828-0.8525391c-0.09375-0.2841797-0.1396484-0.6289101-0.1396484-1.0351601
			s0.0458984-0.7509766,0.1396484-1.0351562c0.1152344-0.3652344,0.3261719-0.6494141,0.6298828-0.8525391
			C101.6804352,61.2281685,102.0476227,61.126606,102.4763336,61.126606z M102.4763336,61.9967232
			c-0.4111328,0-0.6757812,0.1826172-0.7910156,0.5478516c-0.0585938,0.1855469-0.0869141,0.4433594-0.0869141,0.7744141
			c0,0.3359375,0.0283203,0.5947266,0.0869141,0.7744179c0.1269531,0.3652344,0.3916016,0.5478516,0.7910156,0.5478516
			c0.3945312,0,0.6552734-0.1826172,0.7832031-0.5478516c0.0576172-0.1796913,0.0869141-0.4384804,0.0869141-0.7744179
			c0-0.3310547-0.0292969-0.5888672-0.0869141-0.7744141C103.1433258,62.1793404,102.8825836,61.9967232,102.4763336,61.9967232z"/>
		<path class="st0" d="M106.7224274,61.126606c0.5166016,0,0.8789062,0.1650391,1.0878906,0.4960938h0.0087891v-0.3134766
			c0-0.0576172,0.0292969-0.0869141,0.0869141-0.0869141h1.3134766c0.0585938,0,0.0869141,0.0292969,0.0869141,0.0869141v0.6787109
			c0,0.0576172-0.0283203,0.0869141-0.0869141,0.0869141h-0.3740234c-0.0341797,0-0.0517578,0.0175781-0.0517578,0.0517578
			v3.0283241c0,0.6083984-0.1669922,1.0810547-0.5,1.4179688c-0.3339844,0.3359375-0.8193359,0.5048828-1.4580078,0.5048828
			c-0.2958984,0-0.5839844-0.0566406-0.8652344-0.1699219s-0.5-0.265625-0.6572266-0.4570312
			c-0.0341797-0.0400391-0.03125-0.0810547,0.0087891-0.1220703l0.5136719-0.5126953
			c0.0400391-0.046875,0.0839844-0.046875,0.1298828,0c0.2734375,0.2607422,0.5771484,0.3916016,0.9140625,0.3916016
			c0.6259766,0,0.9394531-0.3339844,0.9394531-1.0009766v-0.3916016h-0.0087891
			c-0.2089844,0.3251953-0.5712891,0.4873047-1.0878906,0.4873047c-0.3535156,0-0.6523438-0.0869141-0.8955078-0.2607422
			c-0.2441406-0.1738281-0.4208984-0.4267578-0.53125-0.7568359c-0.0927734-0.2841797-0.1386719-0.6406288-0.1386719-1.0703163
			c0-0.4228516,0.0458984-0.7773438,0.1386719-1.0615234C105.5163727,61.4684029,105.9919586,61.126606,106.7224274,61.126606z
			 M106.9753571,61.9967232c-0.3769531,0-0.6240234,0.1767578-0.7392578,0.5302734
			c-0.0644531,0.1855469-0.0957031,0.4150391-0.0957031,0.6875c0,0.2841797,0.03125,0.5136719,0.0957031,0.6875
			c0.1152344,0.3593788,0.3623047,0.5390663,0.7392578,0.5390663c0.3828125,0,0.6318359-0.1796875,0.7480469-0.5390663
			c0.0634766-0.1738281,0.0957031-0.4033203,0.0957031-0.6875c0-0.2724609-0.0322266-0.5019531-0.0957031-0.6875
			C107.607193,62.173481,107.3581696,61.9967232,106.9753571,61.9967232z"/>
		<path class="st0" d="M112.2810211,61.2223091h1.5664062c0.0576172,0,0.0869141,0.0292969,0.0869141,0.0869141v0.6787109
			c0,0.0576172-0.0292969,0.0869141-0.0869141,0.0869141h-0.2265625c-0.0341797,0-0.0576172,0.0175781-0.0693359,0.0517578
			l-1.3828125,3.5498085c-0.1914062,0.4931641-0.3876953,0.8339844-0.5878906,1.0224609s-0.4736328,0.2832031-0.8222656,0.2832031
			h-0.2695312c-0.0576172,0-0.0869141-0.0292969-0.0869141-0.0878906v-0.6953125
			c0-0.0585938,0.0292969-0.0869141,0.0869141-0.0869141h0.1572266c0.1621094,0,0.2910156-0.0390625,0.3867188-0.1181641
			c0.0957031-0.078125,0.1757812-0.2041016,0.2392578-0.3779297l0.1220703-0.3564453l-1.3056641-3.1406288
			c-0.0117188-0.0292969-0.03125-0.0439453-0.0605469-0.0439453h-0.234375c-0.0585938,0-0.0878906-0.0292969-0.0878906-0.0869141
			v-0.6787109c0-0.0576172,0.0292969-0.0869141,0.0878906-0.0869141h1.6259766c0.0585938,0,0.0878906,0.0292969,0.0878906,0.0869141
			v0.6787109c0,0.0576172-0.0292969,0.0869141-0.0878906,0.0869141h-0.2783203
			c-0.0400391,0-0.0546875,0.0205078-0.0429688,0.0605469l0.7480469,1.9755898h0.0175781l0.7392578-1.9755898
			c0.0117188-0.0400391-0.0029297-0.0605469-0.0429688-0.0605469h-0.2792969c-0.0576172,0-0.0869141-0.0292969-0.0869141-0.0869141
			v-0.6787109C112.1941071,61.251606,112.2234039,61.2223091,112.2810211,61.2223091z"/>
		<path class="st0" d="M114.6569977,64.3541489h0.8701172c0.0576172,0,0.0869141,0.0292969,0.0869141,0.0869141v0.8876953
			c0,0.0576172-0.0292969,0.0869141-0.0869141,0.0869141h-0.8701172c-0.0576172,0-0.0869141-0.0292969-0.0869141-0.0869141
			v-0.8876953C114.5700836,64.3834457,114.5993805,64.3541489,114.6569977,64.3541489z"/>
	</g>
</g>
<g id="Vermassung" class="st2">
	<path class="st3" d="M11.4340153,43.7142868v2.6435547H4.991632v3.4433594h5.7763677v2.6220703H4.991632v3.9980469h6.4423833
		v2.6220703H1.8812804V43.7142868H11.4340153z"/>
	<rect x="-0.0001587" y="7.2340713" class="st3" width="4.2601218" height="4.2601218"/>
	<rect x="5.98558" y="0.0047675" class="st3" width="4.2601218" height="4.2601218"/>
	<rect x="7.2741766" y="7.2756386" class="st3" width="4.2601218" height="4.2601218"/>
	<rect x="7.2276063" y="24.1586533" class="st3" width="4.2601218" height="4.2601218"/>
</g>
</svg>
